<svg xmlns="http://www.w3.org/2000/svg" width="16" height="16" fill="currentColor" class="bi bi-role" viewBox="0 0 16 16">
  <path d="M10.3658537,8.5110973 C10.5754146,8.5110973 10.779122,8.53420837 10.9752195,8.57840829 L11.0674146,8.91698545 C11.1217614,9.12044772 11.255805,9.29424947 11.4400317,9.40012311 C11.6242584,9.50599675 11.8435628,9.5352613 12.0496585,9.4814733 L12.3897561,9.39191791 C12.6697539,9.69280848 12.8782303,10.0515551 13,10.4420271 L12.7512195,10.69076 C12.4391308,11.0040478 12.4391308,11.5064478 12.7512195,11.8197357 L13,12.0684685 C12.8783096,12.459146 12.6698289,12.8180974 12.3897561,13.1191555 L12.0496585,13.0296001 C11.8436027,12.9758023 11.6243334,13.0050274 11.440114,13.1108427 C11.2558946,13.2166579 11.1218248,13.3903902 11.0674146,13.5937991 L10.9752195,13.9323762 C10.5741109,14.0225413 10.1575964,14.0225413 9.75648781,13.9323762 L9.66429268,13.5937991 C9.60994592,13.3903368 9.47590235,13.2165351 9.29167564,13.1106614 C9.10744893,13.0047878 8.88814453,12.9755232 8.68204878,13.0293112 L8.34195122,13.1188666 C8.06199087,12.8180598 7.85351666,12.4594156 7.73170732,12.0690463 L7.9804878,11.8203134 C8.29257649,11.5070256 8.29257649,11.0046256 7.9804878,10.6913377 L7.73170732,10.4426049 C7.85339776,10.0519274 8.06187842,9.69297597 8.34195122,9.39191791 L8.68204878,9.4814733 C8.88810457,9.53527109 9.1073739,9.50604599 9.29159329,9.40023074 C9.47581268,9.29441549 9.60988253,9.12068326 9.66429268,8.91727433 L9.75648781,8.57869717 C9.95641322,8.53376428 10.1608109,8.5110973 10.3658537,8.5110973 Z M7.34536586,8.76243017 L7.31580488,8.79796344 C7.02589729,9.15215657 6.80104066,9.55370432 6.65141464,9.98442792 L6.6124878,10.1028722 L6.59463415,10.1672943 L6.58058537,10.2322941 C6.51583989,10.5813455 6.61582955,10.9404913 6.85219512,11.2078701 L6.89814635,11.25727 L6.85219512,11.3063811 C6.58396965,11.6077002 6.49323674,12.024756 6.6124878,12.4082013 C6.76024097,12.8825932 6.99835326,13.3247975 7.31404878,13.7110877 L3.14039025,13.7110877 C1.95828536,13.7110877 1,12.7652264 1,11.5984472 C1.00021718,10.3764565 1.88835388,9.3305975 3.10731707,9.11689619 L3.78048781,8.99845197 C4.84029269,8.81269676 6.1087805,8.73411912 7.34536586,8.76243017 L7.34536586,8.76243017 Z M10.3658537,10.1121166 C9.73131707,10.1121166 9.21707318,10.6240268 9.21707318,11.2555367 C9.21707318,11.8870466 9.73131708,12.3989568 10.3658537,12.3989568 C11.0003902,12.3989568 11.5146341,11.8870466 11.5146341,11.2555367 C11.5146341,10.6240268 11.0003902,10.1121166 10.3658537,10.1121166 Z M6.85365854,1 C8.79326829,1 10.3658537,2.55219715 10.3658537,4.4666603 C10.3658537,6.38112344 8.79326829,7.93332059 6.85365854,7.93332059 C4.91404878,7.93332059 3.34146342,6.38112344 3.34146342,4.4666603 C3.34146342,2.55219715 4.91404878,1 6.85365854,1 Z" />
</svg>